<svg width="1010" height="210" viewBox="0 0 1010 210" fill="none" xmlns="http://www.w3.org/2000/svg">
<path d="M69.888 80.536L70.016 102.168C70.016 112.323 68.736 119.021 66.176 122.264C63.616 125.421 58.9653 127 52.224 127H33.408V114.84H42.88C45.0133 114.84 46.4213 114.584 47.104 114.072C47.7867 113.56 48.128 112.579 48.128 111.128V50.456C48.128 48.92 47.7867 47.896 47.104 47.384C46.4213 46.872 45.0133 46.616 42.88 46.616H33.408V34.456H53.504C59.7333 34.456 64.0427 35.9067 66.432 38.808C68.9067 41.624 70.144 47.1707 70.144 55.448L69.888 80.536ZM29.568 127.128H16.128C13.312 127.128 11.4347 126.659 10.496 125.72C9.55733 124.696 9.088 122.733 9.088 119.832V41.752C9.088 38.8507 9.55733 36.9307 10.496 35.992C11.4347 34.968 13.312 34.456 16.128 34.456H29.568V127.128ZM105.118 127H104.862C96.414 127 91.2087 125.549 89.246 122.648C88.3073 121.283 87.5393 119.96 86.942 118.68C86.43 117.4 86.0887 115.395 85.918 112.664C85.4913 107.715 85.278 102.211 85.278 96.152C85.278 90.0933 85.3207 85.7413 85.406 83.096C85.4913 80.3653 85.7473 77.6347 86.174 74.904C86.686 72.088 87.326 70.0827 88.094 68.888C88.862 67.608 90.014 66.456 91.55 65.432C93.086 64.408 94.878 63.768 96.926 63.512C98.974 63.1707 101.619 63 104.862 63H105.118V127ZM139.166 106.776V113.304C139.166 122.435 134.515 127 125.214 127H109.086V117.4H115.998C117.79 117.4 118.899 117.144 119.326 116.632C119.753 116.035 119.966 115.011 119.966 113.56V109.464C119.966 108.184 120.094 107.459 120.35 107.288C120.691 107.117 120.905 107.032 120.99 107.032C121.075 106.947 121.289 106.904 121.63 106.904C122.057 106.819 122.355 106.776 122.526 106.776C128.073 106.776 133.619 106.776 139.166 106.776ZM109.086 63H123.934C129.822 63 133.833 64.152 135.966 66.456C138.099 68.76 139.166 72.1733 139.166 76.696V87.96C139.166 95.64 134.985 99.48 126.622 99.48H107.806V89.88H114.718C116.766 89.88 118.131 89.624 118.814 89.112C119.582 88.6 119.966 87.6187 119.966 86.168V76.44C119.966 74.9893 119.753 74.008 119.326 73.496C118.899 72.8987 117.79 72.6 115.998 72.6H109.086V63ZM203.49 63V107.032C203.49 116.589 200.461 122.648 194.402 125.208C191.757 126.403 188.429 127 184.418 127H179.81V117.4C182.797 117.4 184.29 115.267 184.29 111V68.248C184.29 64.7493 185.826 63 188.898 63H203.49ZM152.29 63H166.882C169.954 63 171.49 64.7493 171.49 68.248V111C171.49 115.267 172.983 117.4 175.97 117.4V127H171.362C163.341 127 158.05 124.781 155.49 120.344C153.357 116.845 152.29 112.408 152.29 107.032V63ZM217.924 63.128H225.732C229.487 63.128 232.303 64.0667 234.18 65.944C236.143 67.736 237.124 70.0827 237.124 72.984V127H222.532C221.167 127 220.057 126.531 219.204 125.592C218.351 124.653 217.924 123.416 217.924 121.88V63.128ZM218.82 35.864C219.759 34.9253 222.489 34.456 227.012 34.456C231.535 34.456 234.265 34.9253 235.204 35.864C236.143 36.7173 236.612 39.2773 236.612 43.544C236.612 47.8107 236.1 50.4133 235.076 51.352C234.137 52.2907 231.449 52.76 227.012 52.76C222.575 52.76 219.844 52.2907 218.82 51.352C217.881 50.4133 217.412 47.8107 217.412 43.544C217.412 39.2773 217.881 36.7173 218.82 35.864ZM279.063 126.104C279.063 126.701 278.85 127 278.423 127H265.495C260.716 127 257.175 125.891 254.871 123.672C252.652 121.453 251.543 117.827 251.543 112.792V34.584H259.351C263.106 34.584 265.922 35.5227 267.799 37.4C269.762 39.192 270.743 41.5387 270.743 44.44V112.536C270.743 115.181 271.298 116.675 272.407 117.016C273.004 117.272 273.815 117.4 274.839 117.4H278.039C278.722 117.4 279.063 117.699 279.063 118.296V126.104ZM350.388 80.536L350.516 102.168C350.516 112.323 349.236 119.021 346.676 122.264C344.116 125.421 339.465 127 332.724 127H313.908V114.84H323.38C325.513 114.84 326.921 114.584 327.604 114.072C328.287 113.56 328.628 112.579 328.628 111.128V50.456C328.628 48.92 328.287 47.896 327.604 47.384C326.921 46.872 325.513 46.616 323.38 46.616H313.908V34.456H334.004C340.233 34.456 344.543 35.9067 346.932 38.808C349.407 41.624 350.644 47.1707 350.644 55.448L350.388 80.536ZM310.068 127.128H296.628C293.812 127.128 291.935 126.659 290.996 125.72C290.057 124.696 289.588 122.733 289.588 119.832V41.752C289.588 38.8507 290.057 36.9307 290.996 35.992C291.935 34.968 293.812 34.456 296.628 34.456H310.068V127.128ZM385.618 127H385.362C376.914 127 371.709 125.549 369.746 122.648C368.807 121.283 368.039 119.96 367.442 118.68C366.93 117.4 366.589 115.395 366.418 112.664C365.991 107.715 365.778 102.211 365.778 96.152C365.778 90.0933 365.821 85.7413 365.906 83.096C365.991 80.3653 366.247 77.6347 366.674 74.904C367.186 72.088 367.826 70.0827 368.594 68.888C369.362 67.608 370.514 66.456 372.05 65.432C373.586 64.408 375.378 63.768 377.426 63.512C379.474 63.1707 382.119 63 385.362 63H385.618V127ZM419.666 106.776V113.304C419.666 122.435 415.015 127 405.714 127H389.586V117.4H396.498C398.29 117.4 399.399 117.144 399.826 116.632C400.253 116.035 400.466 115.011 400.466 113.56V109.464C400.466 108.184 400.594 107.459 400.85 107.288C401.191 107.117 401.405 107.032 401.49 107.032C401.575 106.947 401.789 106.904 402.13 106.904C402.557 106.819 402.855 106.776 403.026 106.776C408.573 106.776 414.119 106.776 419.666 106.776ZM389.586 63H404.434C410.322 63 414.333 64.152 416.466 66.456C418.599 68.76 419.666 72.1733 419.666 76.696V87.96C419.666 95.64 415.485 99.48 407.122 99.48H388.306V89.88H395.218C397.266 89.88 398.631 89.624 399.314 89.112C400.082 88.6 400.466 87.6187 400.466 86.168V76.44C400.466 74.9893 400.253 74.008 399.826 73.496C399.399 72.8987 398.29 72.6 396.498 72.6H389.586V63ZM450.71 63V86.424C450.71 87.8747 450.923 88.8987 451.35 89.496C451.777 90.008 452.886 90.264 454.678 90.264H461.846V99.864H445.462C436.161 99.864 431.51 95.2987 431.51 86.168V77.208C431.51 71.576 432.918 67.8213 435.734 65.944C438.635 63.9813 443.627 63 450.71 63ZM450.966 106.776V113.56C450.966 115.011 451.179 116.035 451.606 116.632C452.033 117.144 453.142 117.4 454.934 117.4H461.846V127H445.718C436.417 127 431.766 122.435 431.766 113.304V109.464C431.766 108.184 431.894 107.459 432.15 107.288C432.491 107.117 432.705 107.032 432.79 107.032C432.875 106.947 433.089 106.904 433.43 106.904C433.857 106.819 434.113 106.776 434.198 106.776C439.83 106.776 445.419 106.776 450.966 106.776ZM465.686 90.264H470.934C480.235 90.264 484.886 94.8293 484.886 103.96V112.792C484.886 118.424 483.435 122.221 480.534 124.184C477.718 126.061 472.769 127 465.686 127V90.264ZM454.55 63H470.678C479.979 63 484.63 67.5653 484.63 76.696V83.352C478.913 83.352 474.561 83.352 471.574 83.352C468.587 83.352 467.051 83.352 466.966 83.352C466.881 83.2667 466.71 83.224 466.454 83.224C466.283 83.1387 466.155 83.0533 466.07 82.968C465.985 82.8827 465.899 82.7973 465.814 82.712C465.729 82.5413 465.686 82.3707 465.686 82.2C465.515 81.5173 465.43 81.0053 465.43 80.664V76.44C465.43 74.9893 465.217 74.008 464.79 73.496C464.363 72.8987 463.254 72.6 461.462 72.6H454.55V63ZM530.561 125.976C530.561 126.488 530.305 126.829 529.793 127H520.065C513.836 127 509.313 125.763 506.497 123.288C503.681 120.813 502.273 116.461 502.273 110.232V72.856H495.745C493.612 72.856 492.545 71.576 492.545 69.016V63H502.273V34.456H510.081C513.836 34.456 516.652 35.3947 518.529 37.272C520.492 39.1493 521.473 41.5387 521.473 44.44V112.536C521.473 115.693 523.265 117.272 526.849 117.272H529.537C530.22 117.272 530.561 117.571 530.561 118.168V125.976ZM534.529 63V69.016C534.529 71.576 533.462 72.856 531.329 72.856H524.673V63H534.529ZM556.62 63H571.98C572.492 63 572.748 63.2987 572.748 63.896V71.704C572.748 72.3013 572.407 72.6 571.724 72.6H565.964C563.916 72.6 562.721 72.984 562.38 73.752C562.039 74.8613 561.868 76.0987 561.868 77.464V117.144C561.868 120.045 560.887 122.435 558.924 124.312C557.047 126.104 554.231 127 550.476 127H542.668V77.208C542.668 72.1733 543.777 68.5467 545.996 66.328C548.3 64.1093 551.841 63 556.62 63ZM605.333 63H617.749C620.992 63 623.637 63.1707 625.685 63.512C627.733 63.768 629.525 64.408 631.061 65.432C632.597 66.456 633.749 67.608 634.517 68.888C635.285 70.0827 635.882 72.0453 636.309 74.776C636.992 78.616 637.333 83.992 637.333 90.904C637.333 97.816 637.29 102.509 637.205 104.984C637.12 107.373 636.949 109.933 636.693 112.664C636.522 115.395 636.138 117.4 635.541 118.68C635.029 119.96 634.304 121.283 633.365 122.648C632.512 123.928 631.36 124.824 629.909 125.336C626.752 126.445 622.698 127 617.749 127H617.493V78.744C617.493 78.5733 617.493 78.0613 617.493 77.208C617.493 76.3547 617.45 75.6293 617.365 75.032C616.938 73.4107 615.232 72.6 612.245 72.6H605.333V63ZM601.493 63V111.256C601.493 111.427 601.493 111.939 601.493 112.792C601.493 113.645 601.578 114.371 601.749 114.968C602.09 116.589 603.754 117.4 606.741 117.4H613.653V127H601.237C597.994 127 595.349 126.872 593.301 126.616C591.253 126.275 589.461 125.592 587.925 124.568C586.389 123.544 585.237 122.435 584.469 121.24C583.701 119.96 583.061 117.955 582.549 115.224C581.952 111.384 581.653 106.008 581.653 99.096C581.653 92.184 581.696 87.5333 581.781 85.144C581.866 82.6693 581.994 80.0667 582.165 77.336C582.421 74.6053 582.805 72.6 583.317 71.32C583.914 70.04 584.64 68.76 585.493 67.48C586.432 66.1147 587.626 65.176 589.077 64.664C592.234 63.5547 596.288 63 601.237 63H601.493ZM651.043 63H665.635C667 63 668.11 63.4693 668.963 64.408C669.816 65.3467 670.243 66.584 670.243 68.12V113.56C670.243 114.925 670.542 115.907 671.139 116.504C671.822 117.101 673.272 117.4 675.491 117.4H682.403V127H664.995C655.694 127 651.043 122.435 651.043 113.304V63ZM671.523 135.192V141.976C671.523 143.427 671.736 144.408 672.163 144.92C672.59 145.517 673.699 145.816 675.491 145.816H682.403V155.416H666.275C656.974 155.416 652.323 150.851 652.323 141.72V137.88C652.323 136.6 652.451 135.875 652.707 135.704C653.048 135.533 653.262 135.405 653.347 135.32C653.432 135.32 653.646 135.277 653.987 135.192C654.414 135.192 654.712 135.192 654.883 135.192C660.43 135.192 665.976 135.192 671.523 135.192ZM686.243 63H694.051C697.806 63 700.622 63.9387 702.499 65.816C704.462 67.608 705.443 69.9547 705.443 72.856V145.688C705.443 148.589 704.462 150.936 702.499 152.728C700.622 154.605 697.806 155.544 694.051 155.544H686.243V63ZM742.318 127H728.878C725.977 127 724.057 126.531 723.118 125.592C722.265 124.653 721.838 122.691 721.838 119.704V41.752C721.838 38.7653 722.265 36.8027 723.118 35.864C724.057 34.9253 725.977 34.456 728.878 34.456H742.318V127ZM754.7 34.456H794.764C796.129 34.456 797.239 34.9253 798.092 35.864C798.945 36.8027 799.372 38.04 799.372 39.576V127H785.932C783.031 127 781.111 126.531 780.172 125.592C779.319 124.653 778.892 122.691 778.892 119.704V50.456H758.412C755.937 50.456 754.7 48.408 754.7 44.312V34.456ZM804.492 34.456H824.972C827.447 34.456 828.684 36.504 828.684 40.6V50.456H804.492V34.456Z" fill="#B00E0E"/>
<path d="M281.168 192.64C280.443 192.64 279.867 192.427 279.44 192C279.013 191.531 278.8 190.891 278.8 190.08V165.056C278.8 159.253 280.421 154.731 283.664 151.488C286.949 148.203 291.493 146.56 297.296 146.56C303.056 146.56 307.579 148.203 310.864 151.488C314.149 154.773 315.792 159.296 315.792 165.056V190.08C315.792 190.891 315.579 191.531 315.152 192C314.725 192.427 314.128 192.64 313.36 192.64C312.635 192.64 312.037 192.427 311.568 192C311.141 191.531 310.928 190.891 310.928 190.08V175.68H283.6V190.08C283.6 190.891 283.387 191.531 282.96 192C282.533 192.427 281.936 192.64 281.168 192.64ZM310.928 171.712V164.864C310.928 160.299 309.755 156.8 307.408 154.368C305.061 151.893 301.691 150.656 297.296 150.656C292.859 150.656 289.467 151.872 287.12 154.304C284.773 156.736 283.6 160.256 283.6 164.864V171.712H310.928ZM327.411 192.64C326.685 192.64 326.109 192.427 325.683 192C325.299 191.531 325.107 190.891 325.107 190.08V162.56C325.107 161.749 325.299 161.131 325.683 160.704C326.067 160.235 326.643 160 327.411 160C328.136 160 328.691 160.235 329.075 160.704C329.501 161.131 329.715 161.749 329.715 162.56V166.336C331.293 164.245 333.192 162.667 335.411 161.6C337.672 160.533 340.147 160 342.835 160C346.888 160 350.003 161.131 352.179 163.392C354.397 165.653 355.507 168.896 355.507 173.12V190.08C355.507 190.891 355.293 191.531 354.867 192C354.44 192.427 353.864 192.64 353.139 192.64C352.371 192.64 351.795 192.427 351.411 192C351.027 191.531 350.835 190.891 350.835 190.08V173.12C350.835 167.061 347.976 164.032 342.259 164.032C338.504 164.032 335.475 165.141 333.171 167.36C330.909 169.579 329.779 172.523 329.779 176.192V190.08C329.779 190.848 329.565 191.467 329.139 191.936C328.755 192.405 328.179 192.64 327.411 192.64ZM385.544 185.664C386.013 186.048 386.248 186.496 386.248 187.008C386.248 187.435 386.056 187.947 385.672 188.544C384.776 189.781 383.538 190.784 381.96 191.552C380.381 192.277 378.76 192.64 377.096 192.64C374.28 192.64 372.061 191.808 370.44 190.144C368.818 188.48 368.008 186.197 368.008 183.296V164.544H364.552C362.845 164.544 361.992 163.883 361.992 162.56C361.992 161.963 362.205 161.493 362.632 161.152C363.101 160.811 363.741 160.64 364.552 160.64H368.008V149.696C368.008 148.885 368.2 148.267 368.584 147.84C369.01 147.371 369.608 147.136 370.376 147.136C371.101 147.136 371.656 147.371 372.04 147.84C372.466 148.267 372.68 148.885 372.68 149.696V160.64H381.384C382.152 160.64 382.749 160.811 383.176 161.152C383.645 161.451 383.88 161.92 383.88 162.56C383.88 163.883 383.048 164.544 381.384 164.544H372.68V183.68C372.68 186.965 374.216 188.608 377.288 188.608C378.269 188.608 379.165 188.416 379.976 188.032C380.786 187.648 381.597 187.029 382.408 186.176C383.048 185.493 383.666 185.152 384.264 185.152C384.648 185.152 385.074 185.323 385.544 185.664ZM396.561 153.216C395.622 153.216 394.812 152.917 394.129 152.32C393.489 151.68 393.169 150.912 393.169 150.016C393.169 149.12 393.489 148.352 394.129 147.712C394.812 147.072 395.622 146.752 396.561 146.752C397.5 146.752 398.31 147.093 398.993 147.776C399.718 148.416 400.081 149.163 400.081 150.016C400.081 150.869 399.718 151.616 398.993 152.256C398.31 152.896 397.5 153.216 396.561 153.216ZM396.561 192.64C395.836 192.64 395.26 192.427 394.833 192C394.449 191.531 394.257 190.891 394.257 190.08V162.56C394.257 161.749 394.449 161.131 394.833 160.704C395.26 160.235 395.836 160 396.561 160C397.329 160 397.905 160.235 398.289 160.704C398.716 161.131 398.929 161.749 398.929 162.56V190.08C398.929 190.891 398.716 191.531 398.289 192C397.905 192.427 397.329 192.64 396.561 192.64ZM447.478 192.64C443.041 192.64 439.137 191.701 435.766 189.824C432.438 187.904 429.857 185.216 428.022 181.76C426.187 178.261 425.27 174.229 425.27 169.664C425.27 165.056 426.187 161.003 428.022 157.504C429.857 154.005 432.438 151.317 435.766 149.44C439.137 147.52 443.019 146.56 447.414 146.56C451.083 146.56 454.454 147.179 457.526 148.416C460.641 149.653 463.073 151.381 464.822 153.6C465.163 153.984 465.334 154.453 465.334 155.008C465.334 155.691 465.035 156.245 464.438 156.672C464.054 156.928 463.627 157.056 463.158 157.056C462.347 157.056 461.665 156.736 461.11 156.096C459.745 154.347 457.889 153.003 455.542 152.064C453.195 151.125 450.486 150.656 447.414 150.656C443.873 150.656 440.801 151.424 438.198 152.96C435.595 154.496 433.59 156.693 432.182 159.552C430.817 162.411 430.134 165.781 430.134 169.664C430.134 173.504 430.817 176.853 432.182 179.712C433.59 182.528 435.595 184.704 438.198 186.24C440.843 187.776 443.937 188.544 447.478 188.544C450.763 188.544 453.622 188.075 456.054 187.136C458.529 186.155 460.47 184.811 461.878 183.104C462.518 182.421 463.201 182.08 463.926 182.08C464.438 182.08 464.865 182.229 465.206 182.528C465.803 183.04 466.102 183.595 466.102 184.192C466.102 184.704 465.91 185.195 465.526 185.664C463.777 187.797 461.281 189.504 458.038 190.784C454.838 192.021 451.318 192.64 447.478 192.64ZM476.411 192.64C475.685 192.64 475.109 192.427 474.683 192C474.299 191.531 474.107 190.891 474.107 190.08V162.56C474.107 161.749 474.299 161.131 474.683 160.704C475.067 160.235 475.643 160 476.411 160C477.136 160 477.691 160.235 478.075 160.704C478.501 161.131 478.715 161.749 478.715 162.56V166.4C481.616 162.56 485.627 160.64 490.747 160.64H492.347C493.157 160.64 493.797 160.832 494.267 161.216C494.736 161.557 494.971 162.048 494.971 162.688C494.971 163.328 494.736 163.819 494.267 164.16C493.797 164.501 493.157 164.672 492.347 164.672H490.555C486.928 164.672 484.048 165.717 481.915 167.808C479.824 169.856 478.779 172.651 478.779 176.192V190.08C478.779 190.848 478.565 191.467 478.139 191.936C477.755 192.405 477.179 192.64 476.411 192.64ZM503.499 153.216C502.56 153.216 501.749 152.917 501.067 152.32C500.427 151.68 500.107 150.912 500.107 150.016C500.107 149.12 500.427 148.352 501.067 147.712C501.749 147.072 502.56 146.752 503.499 146.752C504.437 146.752 505.248 147.093 505.931 147.776C506.656 148.416 507.019 149.163 507.019 150.016C507.019 150.869 506.656 151.616 505.931 152.256C505.248 152.896 504.437 153.216 503.499 153.216ZM503.499 192.64C502.773 192.64 502.197 192.427 501.771 192C501.387 191.531 501.195 190.891 501.195 190.08V162.56C501.195 161.749 501.387 161.131 501.771 160.704C502.197 160.235 502.773 160 503.499 160C504.267 160 504.843 160.235 505.227 160.704C505.653 161.131 505.867 161.749 505.867 162.56V190.08C505.867 190.891 505.653 191.531 505.227 192C504.843 192.427 504.267 192.64 503.499 192.64ZM529.675 192.64C526.688 192.64 523.872 192.085 521.227 190.976C518.581 189.824 516.491 188.245 514.955 186.24C514.656 185.813 514.507 185.387 514.507 184.96C514.507 184.533 514.613 184.171 514.827 183.872C515.083 183.531 515.403 183.275 515.786 183.104C516.128 182.976 516.405 182.912 516.619 182.912C517.003 182.912 517.323 183.019 517.579 183.232C517.877 183.403 518.219 183.701 518.603 184.128C521.376 187.072 525.067 188.544 529.675 188.544C531.893 188.544 533.685 188.16 535.051 187.392C536.416 186.624 537.099 185.557 537.099 184.192C537.099 183.211 536.821 182.421 536.267 181.824C535.755 181.184 534.859 180.608 533.579 180.096C532.341 179.541 530.293 178.773 527.435 177.792C524.661 176.853 522.485 175.957 520.907 175.104C519.328 174.251 518.155 173.291 517.387 172.224C516.619 171.115 516.235 169.771 516.235 168.192C516.235 165.717 517.301 163.733 519.435 162.24C521.611 160.747 524.491 160 528.075 160C530.72 160 533.173 160.469 535.435 161.408C537.696 162.304 539.403 163.52 540.555 165.056C540.896 165.525 541.067 165.973 541.067 166.4C541.067 167.04 540.725 167.552 540.043 167.936C539.616 168.192 539.189 168.32 538.763 168.32C538.037 168.32 537.355 168 536.715 167.36C535.605 166.251 534.389 165.44 533.067 164.928C531.744 164.373 530.059 164.096 528.01 164.096C525.749 164.096 524.021 164.459 522.827 165.184C521.632 165.909 521.035 166.933 521.035 168.256C521.035 169.237 521.269 170.027 521.739 170.624C522.251 171.179 523.04 171.691 524.107 172.16C525.216 172.587 527.136 173.248 529.867 174.144C532.939 175.168 535.307 176.149 536.971 177.088C538.677 177.984 539.893 178.987 540.619 180.096C541.387 181.205 541.771 182.571 541.771 184.192C541.771 186.752 540.64 188.8 538.379 190.336C536.16 191.872 533.259 192.64 529.675 192.64ZM570.481 185.664C570.95 186.048 571.185 186.496 571.185 187.008C571.185 187.435 570.993 187.947 570.609 188.544C569.713 189.781 568.476 190.784 566.897 191.552C565.318 192.277 563.697 192.64 562.033 192.64C559.217 192.64 556.998 191.808 555.377 190.144C553.756 188.48 552.945 186.197 552.945 183.296V164.544H549.489C547.782 164.544 546.929 163.883 546.929 162.56C546.929 161.963 547.142 161.493 547.569 161.152C548.038 160.811 548.678 160.64 549.489 160.64H552.945V149.696C552.945 148.885 553.137 148.267 553.521 147.84C553.948 147.371 554.545 147.136 555.313 147.136C556.038 147.136 556.593 147.371 556.977 147.84C557.404 148.267 557.617 148.885 557.617 149.696V160.64H566.321C567.089 160.64 567.686 160.811 568.113 161.152C568.582 161.451 568.817 161.92 568.817 162.56C568.817 163.883 567.985 164.544 566.321 164.544H557.617V183.68C557.617 186.965 559.153 188.608 562.225 188.608C563.206 188.608 564.102 188.416 564.913 188.032C565.724 187.648 566.534 187.029 567.345 186.176C567.985 185.493 568.604 185.152 569.201 185.152C569.585 185.152 570.012 185.323 570.481 185.664ZM614.048 192.64C609.952 192.64 606.176 191.957 602.72 190.592C599.306 189.184 596.64 187.264 594.72 184.832C594.378 184.405 594.208 183.957 594.208 183.488C594.208 182.891 594.528 182.315 595.168 181.76C595.509 181.504 595.872 181.376 596.256 181.376C597.024 181.376 597.706 181.739 598.304 182.464C600.053 184.384 602.25 185.877 604.896 186.944C607.584 187.968 610.634 188.48 614.048 188.48C617.802 188.48 620.704 187.797 622.752 186.432C624.8 185.024 625.824 183.04 625.824 180.48C625.824 178.261 624.821 176.469 622.816 175.104C620.853 173.739 617.504 172.523 612.768 171.456C606.581 170.091 602.122 168.384 599.392 166.336C596.704 164.245 595.36 161.493 595.36 158.08C595.36 154.539 596.853 151.744 599.84 149.696C602.869 147.605 606.944 146.56 612.064 146.56C615.946 146.56 619.445 147.243 622.56 148.608C625.717 149.973 627.957 151.808 629.28 154.112C629.536 154.539 629.664 154.944 629.664 155.328C629.664 156.011 629.301 156.608 628.576 157.12C628.277 157.291 627.936 157.376 627.552 157.376C626.613 157.376 625.888 157.013 625.376 156.288C624.138 154.496 622.389 153.131 620.128 152.192C617.866 151.211 615.178 150.72 612.064 150.72C604.17 150.72 600.224 153.173 600.224 158.08C600.224 159.573 600.629 160.832 601.44 161.856C602.25 162.837 603.552 163.733 605.344 164.544C607.178 165.312 609.717 166.08 612.96 166.848C619.274 168.341 623.818 170.155 626.592 172.288C629.365 174.379 630.752 177.109 630.752 180.48C630.752 184.235 629.237 187.2 626.208 189.376C623.221 191.552 619.168 192.64 614.048 192.64ZM654.041 192.64C650.329 192.64 647.15 191.893 644.505 190.4C641.86 188.907 639.854 186.923 638.489 184.448C637.166 181.931 636.505 179.221 636.505 176.32C636.505 173.419 637.166 170.731 638.489 168.256C639.854 165.739 641.86 163.733 644.505 162.24C647.15 160.747 650.329 160 654.041 160C657.753 160 660.91 160.747 663.513 162.24C666.158 163.733 668.142 165.739 669.465 168.256C670.83 170.731 671.513 173.419 671.513 176.32C671.513 179.221 670.83 181.931 669.465 184.448C668.142 186.923 666.158 188.907 663.513 190.4C660.91 191.893 657.753 192.64 654.041 192.64ZM654.041 188.608C657.881 188.608 660.953 187.52 663.257 185.344C665.604 183.168 666.777 180.16 666.777 176.32C666.777 172.48 665.604 169.472 663.257 167.296C660.953 165.12 657.881 164.032 654.041 164.032C650.158 164.032 647.044 165.12 644.697 167.296C642.393 169.472 641.241 172.48 641.241 176.32C641.241 180.16 642.393 183.168 644.697 185.344C647.044 187.52 650.158 188.608 654.041 188.608ZM694.407 192.64C690.994 192.64 687.986 191.979 685.383 190.656C682.78 189.291 680.775 187.371 679.367 184.896C677.959 182.421 677.255 179.541 677.255 176.256C677.255 173.013 677.959 170.176 679.367 167.744C680.775 165.269 682.78 163.371 685.383 162.048C687.986 160.683 690.994 160 694.407 160C697.607 160 700.38 160.448 702.727 161.344C705.074 162.24 706.93 163.563 708.295 165.312C708.636 165.781 708.807 166.229 708.807 166.656C708.807 167.296 708.487 167.872 707.847 168.384C707.548 168.64 707.164 168.768 706.695 168.768C705.97 168.768 705.287 168.448 704.647 167.808C702.386 165.291 698.972 164.032 694.407 164.032C690.439 164.032 687.367 165.099 685.191 167.232C683.058 169.323 681.991 172.331 681.991 176.256C681.991 180.139 683.079 183.168 685.255 185.344C687.431 187.52 690.482 188.608 694.407 188.608C696.583 188.608 698.588 188.288 700.423 187.648C702.258 186.965 703.772 186.005 704.967 184.768C705.692 184.043 706.375 183.68 707.015 183.68C707.399 183.68 707.826 183.851 708.295 184.192C708.892 184.704 709.191 185.259 709.191 185.856C709.191 186.411 708.956 186.88 708.487 187.264C706.396 189.141 704.22 190.507 701.959 191.36C699.698 192.213 697.18 192.64 694.407 192.64ZM719.936 153.216C718.997 153.216 718.187 152.917 717.504 152.32C716.864 151.68 716.544 150.912 716.544 150.016C716.544 149.12 716.864 148.352 717.504 147.712C718.187 147.072 718.997 146.752 719.936 146.752C720.875 146.752 721.685 147.093 722.368 147.776C723.093 148.416 723.456 149.163 723.456 150.016C723.456 150.869 723.093 151.616 722.368 152.256C721.685 152.896 720.875 153.216 719.936 153.216ZM719.936 192.64C719.211 192.64 718.635 192.427 718.208 192C717.824 191.531 717.632 190.891 717.632 190.08V162.56C717.632 161.749 717.824 161.131 718.208 160.704C718.635 160.235 719.211 160 719.936 160C720.704 160 721.28 160.235 721.664 160.704C722.091 161.131 722.304 161.749 722.304 162.56V190.08C722.304 190.891 722.091 191.531 721.664 192C721.28 192.427 720.704 192.64 719.936 192.64ZM744.192 192.64C740.011 192.64 736.725 191.723 734.336 189.888C731.989 188.053 730.816 185.515 730.816 182.272C730.816 179.072 732.053 176.533 734.528 174.656C737.045 172.779 740.459 171.84 744.768 171.84C747.285 171.84 749.504 172.181 751.424 172.864C753.387 173.547 754.901 174.464 755.968 175.616V171.52C755.968 169.088 755.157 167.232 753.536 165.952C751.957 164.672 749.632 164.032 746.56 164.032C742.592 164.032 739.157 164.971 736.256 166.848C735.531 167.275 734.933 167.488 734.464 167.488C734.037 167.488 733.611 167.317 733.184 166.976C732.715 166.592 732.48 166.101 732.48 165.504C732.48 164.864 732.757 164.331 733.312 163.904C734.848 162.709 736.789 161.771 739.136 161.088C741.525 160.363 743.957 160 746.432 160C750.955 160 754.453 161.024 756.928 163.072C759.445 165.12 760.704 168 760.704 171.712V190.144C760.704 191.808 759.936 192.64 758.4 192.64C757.717 192.64 757.163 192.427 756.736 192C756.309 191.531 756.096 190.933 756.096 190.208V187.904C753.451 191.061 749.483 192.64 744.192 192.64ZM744.768 188.736C748.096 188.736 750.805 188.117 752.896 186.88C754.987 185.6 756.032 183.957 756.032 181.952C756.032 179.947 755.051 178.411 753.088 177.344C751.168 176.235 748.437 175.68 744.896 175.68C741.909 175.68 739.605 176.256 737.984 177.408C736.363 178.517 735.552 180.139 735.552 182.272C735.552 184.363 736.341 185.963 737.92 187.072C739.499 188.181 741.781 188.736 744.768 188.736ZM773.003 192.64C772.278 192.64 771.702 192.427 771.275 192C770.891 191.531 770.699 190.891 770.699 190.08V145.984C770.699 145.173 770.891 144.555 771.275 144.128C771.702 143.659 772.278 143.424 773.003 143.424C773.728 143.424 774.304 143.659 774.731 144.128C775.158 144.555 775.371 145.173 775.371 145.984V190.08C775.371 190.848 775.158 191.467 774.731 191.936C774.347 192.405 773.771 192.64 773.003 192.64ZM824.041 192.64C819.603 192.64 815.699 191.701 812.329 189.824C809.001 187.904 806.419 185.216 804.585 181.76C802.75 178.261 801.833 174.229 801.833 169.664C801.833 165.056 802.75 161.003 804.585 157.504C806.419 154.005 809.001 151.317 812.329 149.44C815.699 147.52 819.582 146.56 823.977 146.56C827.646 146.56 831.017 147.179 834.089 148.416C837.203 149.653 839.635 151.381 841.385 153.6C841.726 153.984 841.897 154.453 841.897 155.008C841.897 155.691 841.598 156.245 841.001 156.672C840.617 156.928 840.19 157.056 839.721 157.056C838.91 157.056 838.227 156.736 837.673 156.096C836.307 154.347 834.451 153.003 832.104 152.064C829.758 151.125 827.049 150.656 823.977 150.656C820.435 150.656 817.363 151.424 814.76 152.96C812.158 154.496 810.153 156.693 808.745 159.552C807.379 162.411 806.697 165.781 806.697 169.664C806.697 173.504 807.379 176.853 808.745 179.712C810.153 182.528 812.158 184.704 814.76 186.24C817.406 187.776 820.499 188.544 824.041 188.544C827.326 188.544 830.185 188.075 832.617 187.136C835.091 186.155 837.033 184.811 838.441 183.104C839.081 182.421 839.763 182.08 840.489 182.08C841.001 182.08 841.427 182.229 841.769 182.528C842.366 183.04 842.665 183.595 842.665 184.192C842.665 184.704 842.473 185.195 842.089 185.664C840.339 187.797 837.843 189.504 834.601 190.784C831.401 192.021 827.881 192.64 824.041 192.64ZM854.253 192.64C853.528 192.64 852.952 192.427 852.525 192C852.141 191.531 851.949 190.891 851.949 190.08V145.984C851.949 145.173 852.141 144.555 852.525 144.128C852.952 143.659 853.528 143.424 854.253 143.424C854.978 143.424 855.554 143.659 855.981 144.128C856.408 144.555 856.621 145.173 856.621 145.984V190.08C856.621 190.848 856.408 191.467 855.981 191.936C855.597 192.405 855.021 192.64 854.253 192.64ZM880.038 192.64C875.856 192.64 872.571 191.445 870.182 189.056C867.835 186.667 866.661 183.339 866.661 179.072V162.56C866.661 161.749 866.875 161.131 867.302 160.704C867.728 160.235 868.304 160 869.03 160C869.755 160 870.31 160.235 870.694 160.704C871.12 161.131 871.334 161.749 871.334 162.56V179.072C871.334 182.101 872.144 184.448 873.766 186.112C875.387 187.776 877.648 188.608 880.55 188.608C882.854 188.608 884.902 188.096 886.694 187.072C888.486 186.048 889.872 184.619 890.854 182.784C891.878 180.949 892.39 178.837 892.39 176.448V162.56C892.39 161.749 892.582 161.131 892.966 160.704C893.392 160.235 893.99 160 894.757 160C895.483 160 896.038 160.235 896.422 160.704C896.848 161.131 897.062 161.749 897.062 162.56V190.08C897.062 190.891 896.848 191.531 896.422 192C896.038 192.427 895.483 192.64 894.757 192.64C893.99 192.64 893.392 192.405 892.966 191.936C892.582 191.467 892.39 190.848 892.39 190.08V186.304C890.811 188.352 888.976 189.931 886.886 191.04C884.795 192.107 882.512 192.64 880.038 192.64ZM908.283 192.64C907.557 192.64 906.981 192.427 906.555 192C906.171 191.531 905.979 190.891 905.979 190.08V145.984C905.979 145.173 906.171 144.555 906.555 144.128C906.981 143.659 907.557 143.424 908.283 143.424C909.008 143.424 909.584 143.659 910.01 144.128C910.437 144.555 910.651 145.173 910.651 145.984L910.715 166.528C914.299 162.176 918.885 160 924.475 160C927.931 160 930.939 160.661 933.499 161.984C936.059 163.307 938.021 165.205 939.387 167.68C940.795 170.112 941.499 172.992 941.499 176.32C941.499 181.525 940.005 185.557 937.019 188.416C934.032 191.232 929.829 192.64 924.411 192.64C918.395 192.64 913.808 190.421 910.651 185.984V190.08C910.651 190.848 910.437 191.467 910.01 191.936C909.627 192.405 909.051 192.64 908.283 192.64ZM924.091 188.608C928.272 188.608 931.429 187.584 933.562 185.536C935.696 183.445 936.763 180.373 936.763 176.32C936.763 172.48 935.632 169.472 933.371 167.296C931.109 165.12 928.016 164.032 924.091 164.032C921.531 164.032 919.227 164.565 917.179 165.632C915.131 166.656 913.531 168.107 912.379 169.984C911.227 171.861 910.651 173.973 910.651 176.32C910.651 180.117 911.845 183.125 914.235 185.344C916.624 187.52 919.909 188.608 924.091 188.608ZM970.847 192.64C970.122 192.64 969.546 192.427 969.119 192C968.692 191.531 968.479 190.891 968.479 190.08V149.12C968.479 148.309 968.692 147.691 969.119 147.264C969.546 146.795 970.122 146.56 970.847 146.56C971.615 146.56 972.212 146.795 972.639 147.264C973.066 147.733 973.279 148.352 973.279 149.12V190.08C973.279 190.848 973.066 191.467 972.639 191.936C972.212 192.405 971.615 192.64 970.847 192.64ZM1006.23 185.664C1006.7 186.048 1006.94 186.496 1006.94 187.008C1006.94 187.435 1006.74 187.947 1006.36 188.544C1005.46 189.781 1004.23 190.784 1002.65 191.552C1001.07 192.277 999.447 192.64 997.783 192.64C994.967 192.64 992.748 191.808 991.127 190.144C989.506 188.48 988.695 186.197 988.695 183.296V164.544H985.239C983.532 164.544 982.679 163.883 982.679 162.56C982.679 161.963 982.892 161.493 983.319 161.152C983.788 160.811 984.428 160.64 985.239 160.64H988.695V149.696C988.695 148.885 988.887 148.267 989.271 147.84C989.698 147.371 990.295 147.136 991.063 147.136C991.788 147.136 992.343 147.371 992.727 147.84C993.154 148.267 993.367 148.885 993.367 149.696V160.64H1002.07C1002.84 160.64 1003.44 160.811 1003.86 161.152C1004.33 161.451 1004.57 161.92 1004.57 162.56C1004.57 163.883 1003.74 164.544 1002.07 164.544H993.367V183.68C993.367 186.965 994.903 188.608 997.975 188.608C998.956 188.608 999.852 188.416 1000.66 188.032C1001.47 187.648 1002.28 187.029 1003.1 186.176C1003.74 185.493 1004.35 185.152 1004.95 185.152C1005.34 185.152 1005.76 185.323 1006.23 185.664Z" fill="white"/>
</svg>
